<svg width="264" height="125" viewBox="0 0 264 125" fill="none" xmlns="http://www.w3.org/2000/svg">
<path d="M51 3.1C51 6.6 52.6 10 54.1 10C54.8 10 55 8.9 54.6 7.2L54 4.5L55.7 7.5L57.5 10.5L57.8 7.6C58 5.7 57.4 4 55.9 2.4C52.8 -0.9 51 -0.7 51 3.1Z" fill="#149841"/>
<path d="M27 9.2C27 11.5 30.9 17 32.5 17C34.5 17 34.4 16.1 32.3 13.6C31 12.1 31.3 12.2 33.3 13.9C35.9 16.3 36 16.3 36 14.2C36 11.8 31.6 8 28.9 8C27.8 8 27 8.6 27 9.2Z" fill="#149841"/>
<path d="M72 9.3C69.4 10.6 68.6 14 70.7 14.7C72 15.2 75.4 10.6 74.8 9.1C74.6 8.4 73.6 8.5 72 9.3Z" fill="#149841"/>
<path d="M79.5 10.5C78.1 11.8 77 13.7 77 14.6C77 16.1 77.4 16 79.6 13.9L82.3 11.5L80.5 14.4C78.7 17.2 78.7 17.2 80.6 16.8C81.6 16.6 83.5 14.6 84.8 12.2L87.1 8.00001H84.5C83.1 8.00001 80.8 9.10001 79.5 10.5Z" fill="#149841"/>
<path d="M38 9.8C38 10.3 38.9 11.8 39.9 13.1C41.5 15.1 42.1 15.3 43.2 14.2C44.1 13.3 44.2 12.5 43.4 11.2C42.2 9.4 38 8.3 38 9.8Z" fill="#149841"/>
<path d="M53 14.9C53 15.4 53.8 16.8 54.8 18C56.2 19.7 57.1 20.1 58.3 19.4C59.8 18.5 59.8 18.2 58.4 16.2C56.9 14.1 53 13.1 53 14.9Z" fill="#149841"/>
<path d="M46 18.6C45 21.9 45 23.2 46.1 25.1C47.5 27.5 47.5 27.4 48.1 23.5L48.7 19.5L48.9 23.5C49.1 27.2 49.2 27.4 50.5 25.6C52.6 22.8 52.4 20.5 49.6 17.3L47.2 14.5L46 18.6Z" fill="#149841"/>
<path d="M63.2 17.5C60.7 20.7 60.5 22.2 62.2 25.3C63.4 27.5 63.4 27.4 64.1 24.5L64.8 21.5L64.9 24.5C65.1 27.4 65.1 27.4 66.5 25.6C68.3 23.2 68.3 21.5 66.7 17.6L65.4 14.7L63.2 17.5Z" fill="#149841"/>
<path d="M38 19.9C39.3 22.5 42.3 22.7 41.8 20.2C41.6 19.3 40.4 18.4 39.2 18.2C37.1 17.9 37 18.1 38 19.9Z" fill="#149841"/>
<path d="M71.7 18.7C71.3 19 71 19.9 71 20.7C71 22.7 73.8 22.2 75 20C75.9 18.3 75.8 18 74.2 18C73.2 18 72 18.3 71.7 18.7Z" fill="#149841"/>
<path d="M24.5 22C26.2 25.3 27.7 25.8 28.7 23.4C29.4 21.6 26.7 19 24.3 19C23.2 19 23.3 19.6 24.5 22Z" fill="#149841"/>
<path d="M85.8 20.1C83.8 21.2 83.4 23.5 85 24.5C86.4 25.4 88.6 23.5 89.3 21C89.9 18.8 88.5 18.5 85.8 20.1Z" fill="#149841"/>
<path d="M33.2 25.5C31.8 28.6 31.6 32.7 32.9 33.5C33.4 33.8 34.1 33 34.3 31.8C34.7 29.5 34.7 29.5 34.9 31.9C35 33.9 35.2 34 36.5 33C38.3 31.5 38.5 25.9 36.8 24.2C35.1 22.5 34.5 22.7 33.2 25.5Z" fill="#149841"/>
<path d="M76 24.9C74.6 27.7 74.8 31.6 76.4 32.9C77.6 33.9 77.9 33.6 78.3 31.3L78.7 28.5L78.9 31.3C79 34.7 81 33.9 81 30.5C81 27.7 79 23 77.9 23C77.4 23 76.6 23.9 76 24.9Z" fill="#149841"/>
<path d="M8 26.8C8 28 13.2 32.6 15.3 33.3C17.7 34.2 17.4 32.4 14.8 30.6C11.8 28.5 13.4 28.5 16.5 30.6C19.3 32.5 19.7 31.5 17.4 28.2C16.3 26.6 14.9 26 11.9 26C9.8 26 8 26.4 8 26.8Z" fill="#149841"/>
<path d="M95.6 28.2C93.2 31.5 93.7 32.4 96.6 30.5C98 29.6 99.4 29.1 99.7 29.3C99.9 29.6 99.2 30.3 98.1 31C95 32.6 95.5 34.2 98.6 33C101.1 32 104.9 28.3 105 26.7C105 26.3 103.2 26 101.1 26C98.1 26 96.7 26.6 95.6 28.2Z" fill="#149841"/>
<path d="M56.7 27.7C56.3 28 56 28.9 56 29.7C56 31.7 58.8 31.2 60 29C60.9 27.3 60.8 27 59.2 27C58.2 27 57 27.3 56.7 27.7Z" fill="#149841"/>
<path d="M41 31.1C42.4 33.6 44.8 34.6 46.2 33.2C47.8 31.6 45.4 29 42.3 29C40.2 29 40.1 29.2 41 31.1Z" fill="#149841"/>
<path d="M67 31.4C67 34 69.4 36.5 71 35.5C72.5 34.5 72.2 32.5 70.2 30.7C67.7 28.4 67 28.6 67 31.4Z" fill="#149841"/>
<path d="M22 34.5C22 37.3 22.4 38 24 38C26 38 26.6 35.8 25.4 32.6C24.2 29.6 22 30.8 22 34.5Z" fill="#149841"/>
<path d="M87.6 32.6C86.4 35.8 87 38 89 38C90.6 38 91 37.3 91 34.5C91 30.8 88.8 29.6 87.6 32.6Z" fill="#149841"/>
<path d="M56.2 36.7C57.4 39.6 60.6 43 62.1 43C62.6 43 62.3 41.8 61.3 40.2L59.6 37.5L61.8 39.4C64.5 41.8 65.6 41 63.9 37.8C62.3 34.8 61.1 34 57.8 34C55.2 34 55.1 34.1 56.2 36.7Z" fill="#149841"/>
<path d="M30.2 39.9C29.2 43.2 29.2 44.4 30.2 46.2C31.4 48.4 31.5 48.4 32.1 45L32.7 41.5L32.9 45C33.1 48.3 33.1 48.4 34.5 46.6C36.6 43.8 36.4 41.5 33.7 38.4L31.4 35.8L30.2 39.9Z" fill="#149841"/>
<path d="M42.5 40.1C41.6 41.8 41.2 43.9 41.5 44.8C42.1 46.3 42.3 46.3 43 44.5C43.7 42.9 43.9 43.2 43.8 46C43.8 47.9 44.7 52.1 45.9 55.4C47.1 58.6 48 62.1 47.8 63.2C47.5 65 47.3 65 44.1 62.6C38.7 58.6 39.1 60.6 44.6 65.5C54.6 74.4 43.7 68.9 32.1 59.1C25.2 53.3 27 56.8 34.7 64.1C40.9 70 45.6 73 48.8 73C51.1 73 51.6 74.1 53.6 83.3C56.3 96.1 54.8 107.5 49.5 116.1C46 121.6 45 121.8 45 116.8C45 114.4 44.6 111.9 44.1 111.1C43.5 110.1 43.8 109.2 45.2 108C48.3 105.5 46.1 102 41.5 102C39.7 102 37.8 102.4 37.5 103C36.8 104.1 38.7 108.1 40.3 109.2C41.6 110 39.3 113 37.4 113C36.7 113 35.4 111.7 34.5 110C32.7 106.4 32.3 106.4 29.4 109.1L27.1 111.3L29.1 115.2C30.2 117.3 30.9 120.3 30.8 121.8L30.5 124.5H51.5H72.6L75.6 121.1L78.7 117.7L80.6 120.9C82.1 123.5 83 124 85.4 123.8C89 123.4 89.9 121.4 86.8 120.7C85.5 120.3 84 119.2 83.3 118.1C82.3 116.5 82.4 115.7 84 113.7C85.1 112.3 86 110.7 86 110.1C86 108.3 83.6 108.9 82.2 111.1C81.3 112.4 80.3 112.9 79 112.5C78 112.2 76.8 112.4 76.5 113.1C75.9 113.9 75.5 113.8 74.9 112.9C73.8 111.1 73.8 109.7 74.9 110.4C76.1 111.2 77.7 109.1 78.5 105.9C79 103.9 78.7 103.2 76.8 102.4C72.2 100.5 69.6 101.3 67.8 105C66.9 106.9 66.1 109.3 66 110.4C66 112 66.3 111.9 68 109.7C69.1 108.3 70 106.1 70.1 104.8C70.2 102.5 70.2 102.5 70.9 105C71.5 106.9 71.1 108.2 69.3 110.3C67.7 112.3 67 114.5 67 117.3L66.9 121.5L65 119.2C62.3 115.9 60.9 107.6 61.1 96C61.3 86 61.4 85.9 64.1 84.4C67.4 82.7 74.8 75.3 75.5 72.9C75.8 72 78.8 69.2 82.1 66.6C85.5 64 87.9 61.6 87.6 61.3C87.3 60.9 85.2 62.1 83.1 63.8C80.9 65.6 78.9 67 78.7 67C78.5 67 78.9 64 79.6 60.2C81.2 52.2 81.3 49.7 80.1 50.4C79.7 50.7 79 53.6 78.7 57C77.7 66 73.8 74 70.4 74C69.7 74 67.9 72.5 66.5 70.6C64 67.3 63.9 67 65.5 64.6C66.5 63.2 67.7 62 68.3 62C68.8 62 68.5 62.9 67.5 64C65.5 66.2 65.9 67.4 68.3 66.4C69.6 65.9 73 60.3 73 58.6C73 57.8 69.6 57.8 67.5 58.6C66.5 59 65.2 60.7 64.4 62.4L63.1 65.5L63 62.3C63 60.6 62.5 58.8 61.8 58.4C61 57.9 60.9 58.9 61.4 62C62.1 66.8 64.3 71.5 67.2 74.6C69.1 76.7 69.1 76.7 66.8 78.2C60.5 82.3 60.2 82.3 58.6 78.6C57.8 76.8 55.6 73.5 53.7 71.4C51 68.3 50.2 66.4 49.8 62.3C49.5 59.4 48.2 54.9 46.8 52.3C44.6 47.9 44.5 47.3 45.8 44.9C47.4 42.3 46.8 37 45 37C44.5 37 43.3 38.4 42.5 40.1ZM59.4 114.5C61.4 120.6 60.3 123.8 57.1 120.7C56.1 119.8 55.6 119.8 55.3 120.6C54.8 121.9 51 121.2 51 119.9C51 119.3 51.6 118.7 52.4 118.4C53.2 118.1 53.6 117.2 53.3 116.4C53 115.6 53.2 115 53.8 115C54.4 115 55.1 113.6 55.5 112C56.3 108.1 57.4 108.9 59.4 114.5ZM74.4 115.2C75.1 116.4 75 117.3 74.1 118.4C71.2 121.9 68.8 119.2 70.6 114.5C71.3 112.6 72.9 112.9 74.4 115.2ZM40 117.4C40 115.8 40.2 115.7 41 117C42.6 119.5 42.1 120.2 39.3 119.5C35.9 118.7 35.6 118.4 36.6 116.9C37.1 116 37.7 116.2 38.7 117.5C40 119.3 40 119.3 40 117.4Z" fill="#734233"/>
<path d="M78.6 39.2C76.6 42 76.6 44.1 78.5 46.6C79.9 48.4 79.9 48.3 80.1 45L80.3 41.5L80.9 44.9C81.4 48 81.6 48.2 82.9 46.6C84 45.2 84.1 44.2 83.1 41C81.8 36.4 80.8 36.1 78.6 39.2Z" fill="#149841"/>
<path d="M67.1 40.3C65.6 44.3 65.7 45.5 68 48.1L70.1 50.5L69.6 47L69 43.5L70.4 46.4C71.3 48.3 72 48.9 72.5 48.1C73.4 46.5 72.4 43 70.1 40L68.1 37.5L67.1 40.3Z" fill="#149841"/>
<path d="M101.1 41.9C100.3 43.3 100.4 44.1 101.4 44.9C102.5 45.8 103.2 45.6 104.4 43.8C106.5 40.8 106.4 40 104 40C103 40 101.6 40.9 101.1 41.9Z" fill="#149841"/>
<path d="M4.5 45.2C4.9 47.6 6.09999 50.4 7.19999 51.5C8.59999 52.8 9.09999 53 8.79999 52C6.99999 46.6 6.79999 45.8 7.89999 46.4C8.49999 46.8 8.99999 48 8.99999 49C8.99999 50 9.49999 51.2 9.99999 51.5C10.6 51.9 11 50.7 11 48.7C11 45.3 9.19999 42.9 5.69999 41.6C4 41.1 3.9 41.4 4.5 45.2Z" fill="#149841"/>
<path d="M15.1 46.9C16.5 51 19.4 53.3 21.9 52.5C23.1 52.2 24 51.2 24 50.4C24 48 19.3 44 16.6 44C14.3 44 14.2 44.2 15.1 46.9Z" fill="#149841"/>
<path d="M91.5 46.5C88.5 49.4 88.3 51.6 91 52.5C93.4 53.3 95.6 51.8 97.6 47.9C99.5 44.2 99.4 44 96.5 44C95.1 44 92.8 45.1 91.5 46.5Z" fill="#149841"/>
<path d="M49.5 47C48.7 49.6 50.6 53.1 52.5 52.4C54.3 51.7 54.5 47.9 52.8 46.2C51.1 44.5 50.2 44.7 49.5 47Z" fill="#149841"/>
<path d="M60.2 46.2C58.5 47.9 58.7 51.7 60.5 52.4C62.4 53.1 64.3 49.6 63.5 47C62.8 44.7 61.9 44.5 60.2 46.2Z" fill="#149841"/>
<path d="M32.7 52.6C31.9 53.5 34.6 58.7 36.2 59.2C38 59.8 39.8 57.9 39.3 55.9C39 55 37.7 53.7 36.4 53.1C33.5 51.8 33.5 51.8 32.7 52.6Z" fill="#149841"/>
<path d="M97.5 54C95.2 56.5 96.1 57.5 99.2 56C101.4 54.9 101.4 54.9 99 56.9L96.5 59H99.1C100.6 59 102.7 57.9 104.4 56.1C106.7 53.7 106.9 53.2 105.5 52.6C102.4 51.5 99.3 52 97.5 54Z" fill="#149841"/>
<path d="M55.5 56C54.8 58.3 55.6 60 57.5 60C59.3 60 59.9 57.9 58.8 55.7C57.6 53.4 56.3 53.5 55.5 56Z" fill="#149841"/>
<path d="M83.2 55.2C82.5 55.9 82 57.5 82 58.8C82 62.6 85.4 61.2 85.8 57.2C86.1 53.9 85.2 53.2 83.2 55.2Z" fill="#149841"/>
<path d="M2.70001 58.6C1.10001 60.5 0.100007 62 0.500007 62C1.70001 62 7.10001 56.1 6.30001 55.7C5.80001 55.5 4.20001 56.8 2.70001 58.6Z" fill="#149841"/>
<path d="M22.8 57.1C20.1 58.6 20.7 60.2 23.8 59.8C25.3 59.6 26.5 58.9 26.5 58.1C26.5 56.2 24.9 55.8 22.8 57.1Z" fill="#149841"/>
<path d="M88.6 57.7C87.6 60.2 89.5 61.4 91.4 59.5C92.3 58.6 93 57.4 93 56.9C93 55.3 89.2 55.9 88.6 57.7Z" fill="#149841"/>
<path d="M12.5 60.9C10.9 64.2 11.1 69 13 69C13.5 69 14.1 67.5 14.3 65.7C14.7 62.7 14.7 62.7 14.8 66.4C15 70.1 15.1 70.3 16.5 68.4C18.5 65.8 18.4 62.7 16.1 59.9L14.3 57.6L12.5 60.9Z" fill="#149841"/>
<path d="M87 64.8C87 66.2 89.3 68 91.2 68C93.3 68 93.5 66.9 91.8 65.2C90.5 63.9 87 63.6 87 64.8Z" fill="#149841"/>
<path d="M29.3 67.5C29 68.4 29 69.3 29.3 69.7C30.3 70.7 33 69.1 33 67.5C33 65.5 30.1 65.5 29.3 67.5Z" fill="#149841"/>
<path d="M20.2 68.2C18.4 70 18.7 72.2 20.8 71.8C21.7 71.6 22.6 70.5 22.8 69.2C23.2 66.8 22.1 66.3 20.2 68.2Z" fill="#149841"/>
<path d="M80.6 70.8C79.6 73.7 80.7 75.5 84.4 77.3C88.5 79.2 89.1 78.8 87.9 74.7C86.9 71.1 86.3 70.5 83.3 69.6C81.7 69.1 81 69.4 80.6 70.8Z" fill="#149841"/>
<path d="M34.3 72.1C32.6 73.8 32.7 79.2 34.4 81.5C35.7 83.3 35.8 83.2 37.4 80.2C38.3 78.5 39 76.2 39 75.1C39 72.3 37 71.4 36.9 74.2C36.8 76.2 36.7 76.1 36.1 73.7C35.6 71.4 35.3 71.1 34.3 72.1Z" fill="#149841"/>
<path d="M24 74C22.2 75.8 21.1 82 22.6 82C24.5 82 29.2 78.2 29.6 76.3C30.7 71.9 27.5 70.5 24 74Z" fill="#149841"/>
<path d="M60 73.5C58.9 74.8 59.2 75 61.4 75C63 75 64 74.5 64 73.5C64 72.7 63.4 72 62.6 72C61.9 72 60.7 72.7 60 73.5Z" fill="#149841"/>
<path d="M41 74.9C41 76.9 45.8 82.5 47.5 82.5C50.3 82.5 50.6 78.6 48.1 76.1C46 74 41 73.2 41 74.9Z" fill="#149841"/>
<path d="M74.9 78.4C76.1 79.8 76.1 80 74.5 79.4C73.2 78.9 72.9 79.1 73.2 80.1C73.8 81.8 78.6 84.7 79.5 83.8C80.7 82.7 77.6 77.5 75.5 77.1C73.8 76.8 73.7 77 74.9 78.4Z" fill="#149841"/>
<path d="M67.3 85.3C67.7 86.4 67.5 86.7 66.4 86.3C64.4 85.6 64.7 87.3 67.1 90.4C69.9 93.9 71 93.7 71 89.5C71 87 70.4 85.8 68.8 84.9C67 83.9 66.8 84 67.3 85.3Z" fill="#149841"/>
<path d="M134.307 86.32C133.454 86.32 132.787 86.1467 132.307 85.8C131.827 85.4533 131.48 85.08 131.267 84.68C131.054 84.2533 130.92 83.9733 130.867 83.84L123.667 63.2C123.267 61.8667 123.2 60.88 123.467 60.24C123.76 59.5733 124.6 59.0133 125.987 58.56C126.894 58.2667 127.627 58.1333 128.187 58.16C128.747 58.1867 129.214 58.4133 129.587 58.84C129.96 59.2667 130.294 59.9333 130.587 60.84L134.747 73L138.027 61.04C138.107 60.7733 138.24 60.4267 138.427 60C138.64 59.5733 138.987 59.2 139.467 58.88C139.947 58.5333 140.64 58.36 141.547 58.36C142.56 58.36 143.307 58.5467 143.787 58.92C144.294 59.2933 144.64 59.6933 144.827 60.12C145.014 60.5467 145.147 60.8667 145.227 61.08L148.507 73.08L152.667 60.84C152.96 59.96 153.28 59.3067 153.627 58.88C154 58.4267 154.48 58.1733 155.067 58.12C155.654 58.0667 156.4 58.2 157.307 58.52C158.267 58.8667 158.947 59.24 159.347 59.64C159.747 60.0133 159.947 60.48 159.947 61.04C159.974 61.6 159.854 62.32 159.587 63.2L152.427 83.84C152.374 84 152.24 84.28 152.027 84.68C151.84 85.08 151.507 85.4533 151.027 85.8C150.547 86.1467 149.854 86.32 148.947 86.32C148.04 86.32 147.334 86.12 146.827 85.72C146.32 85.2933 145.96 84.8667 145.747 84.44C145.534 83.9867 145.414 83.72 145.387 83.64L141.627 71.32L137.867 83.6C137.84 83.7333 137.72 84.0267 137.507 84.48C137.294 84.9067 136.934 85.32 136.427 85.72C135.947 86.12 135.24 86.32 134.307 86.32ZM175.198 86.8C173.251 86.8 171.424 86.44 169.718 85.72C168.038 84.9733 166.558 83.9467 165.278 82.64C163.998 81.3333 162.984 79.8267 162.238 78.12C161.518 76.3867 161.158 74.5467 161.158 72.6C161.158 70.5733 161.504 68.68 162.198 66.92C162.918 65.16 163.904 63.6133 165.158 62.28C166.411 60.9467 167.864 59.9067 169.518 59.16C171.198 58.4133 172.984 58.04 174.878 58.04C176.824 58.04 178.638 58.4133 180.318 59.16C182.024 59.88 183.518 60.8933 184.798 62.2C186.078 63.5067 187.078 65.04 187.798 66.8C188.518 68.5333 188.878 70.4133 188.878 72.44C188.878 74.4133 188.518 76.2667 187.798 78C187.104 79.7333 186.118 81.2667 184.838 82.6C183.584 83.9067 182.131 84.9333 180.478 85.68C178.851 86.4267 177.091 86.8 175.198 86.8ZM174.998 79.48C175.904 79.48 176.758 79.3067 177.558 78.96C178.358 78.5867 179.051 78.0933 179.638 77.48C180.251 76.84 180.718 76.0933 181.038 75.24C181.384 74.36 181.558 73.4267 181.558 72.44C181.558 71.4533 181.384 70.5333 181.038 69.68C180.691 68.8267 180.211 68.08 179.598 67.44C179.011 66.7733 178.318 66.2667 177.518 65.92C176.744 65.5467 175.918 65.36 175.038 65.36C174.131 65.36 173.278 65.5467 172.478 65.92C171.704 66.2667 171.011 66.7733 170.398 67.44C169.811 68.08 169.344 68.8267 168.998 69.68C168.651 70.5333 168.478 71.4533 168.478 72.44C168.478 73.4 168.651 74.3067 168.998 75.16C169.344 76.0133 169.811 76.7733 170.398 77.44C171.011 78.08 171.704 78.5867 172.478 78.96C173.278 79.3067 174.118 79.48 174.998 79.48ZM194.466 86.32C193.266 86.32 192.412 86.1467 191.906 85.8C191.399 85.4267 191.092 84.96 190.986 84.4C190.879 83.8133 190.826 83.2267 190.826 82.64V62C190.826 61.4133 190.879 60.84 190.986 60.28C191.092 59.72 191.399 59.2667 191.906 58.92C192.412 58.5467 193.279 58.36 194.506 58.36H202.546C203.559 58.36 204.652 58.5733 205.826 59C206.999 59.4 208.106 60.0267 209.146 60.88C210.186 61.7333 211.039 62.8 211.706 64.08C212.372 65.36 212.706 66.88 212.706 68.64C212.706 69.8667 212.519 71.0133 212.146 72.08C211.799 73.1467 211.266 74.12 210.546 75C209.852 75.8533 208.999 76.6133 207.986 77.28C206.999 77.92 205.866 78.4267 204.586 78.8H198.146V82.68C198.146 83.2667 198.092 83.84 197.986 84.4C197.879 84.96 197.572 85.4267 197.066 85.8C196.559 86.1467 195.692 86.32 194.466 86.32ZM211.226 85.36C210.026 86.2667 209.079 86.6267 208.386 86.44C207.692 86.28 206.946 85.6667 206.146 84.6L198.786 74.6L207.106 73.56L212.066 80.24C212.599 81.0133 212.932 81.6667 213.066 82.2C213.226 82.7333 213.159 83.24 212.866 83.72C212.572 84.2 212.026 84.7467 211.226 85.36ZM198.146 71.52H202.546C202.786 71.52 203.066 71.48 203.386 71.4C203.732 71.2933 204.052 71.1333 204.346 70.92C204.639 70.68 204.879 70.3733 205.066 70C205.279 69.6267 205.386 69.16 205.386 68.6C205.386 68.04 205.252 67.5467 204.986 67.12C204.719 66.6667 204.359 66.32 203.906 66.08C203.479 65.8133 202.999 65.68 202.466 65.68H198.146V71.52ZM218.326 86.32C217.18 86.32 216.353 86.1467 215.846 85.8C215.34 85.4533 215.02 85 214.886 84.44C214.753 83.88 214.686 83.28 214.686 82.64V61.96C214.686 61.3733 214.74 60.8 214.846 60.24C214.953 59.68 215.26 59.2267 215.766 58.88C216.273 58.5067 217.14 58.3333 218.366 58.36H225.246C227.14 58.36 228.926 58.72 230.606 59.44C232.286 60.16 233.766 61.16 235.046 62.44C236.353 63.6933 237.366 65.16 238.086 66.84C238.833 68.52 239.206 70.3067 239.206 72.2C239.206 74.1467 238.833 75.9733 238.086 77.68C237.366 79.3867 236.353 80.8933 235.046 82.2C233.766 83.48 232.273 84.4933 230.566 85.24C228.886 85.96 227.073 86.32 225.126 86.32H218.326ZM222.006 79H225.246C226.446 79 227.553 78.7067 228.566 78.12C229.58 77.5067 230.38 76.7067 230.966 75.72C231.58 74.7067 231.886 73.5867 231.886 72.36C231.886 71.1333 231.58 70.0133 230.966 69C230.38 67.9867 229.58 67.1867 228.566 66.6C227.553 65.9867 226.433 65.68 225.206 65.68H222.006V79ZM261.145 58.96C262.318 59.76 262.958 60.5333 263.065 61.28C263.172 62 262.878 62.8667 262.185 63.88L254.225 75.8V82.8C254.225 83.3867 254.172 83.96 254.065 84.52C253.958 85.08 253.652 85.5467 253.145 85.92C252.638 86.2667 251.772 86.44 250.545 86.44C249.318 86.44 248.452 86.2667 247.945 85.92C247.438 85.5467 247.132 85.08 247.025 84.52C246.918 83.9333 246.865 83.3333 246.865 82.72V75.8L238.905 63.88C238.158 62.84 237.865 61.9467 238.025 61.2C238.185 60.4533 238.838 59.7067 239.985 58.96C240.812 58.4 241.518 58.08 242.105 58C242.692 57.8933 243.225 58.0133 243.705 58.36C244.185 58.68 244.652 59.2133 245.105 59.96L250.425 68.52L255.985 59.96C256.492 59.1867 256.972 58.64 257.425 58.32C257.905 58 258.438 57.8933 259.025 58C259.612 58.1067 260.318 58.4267 261.145 58.96Z" fill="#149841"/>
</svg>
